<svg width="400" height="300" viewBox="0 0 400 300" fill="none" xmlns="http://www.w3.org/2000/svg">
  <defs>
    <linearGradient id="equipment-bg" x1="0%" y1="0%" x2="100%" y2="100%">
      <stop offset="0%" style="stop-color:#e0f2fe;stop-opacity:1" />
      <stop offset="100%" style="stop-color:#bae6fd;stop-opacity:1" />
    </linearGradient>
  </defs>
  
  <!-- Background -->
  <rect width="400" height="300" fill="url(#equipment-bg)"/>
  
  <!-- Medical Equipment -->
  <!-- Wheelchair -->
  <circle cx="120" cy="200" r="25" fill="#6b7280"/>
  <circle cx="120" cy="200" r="20" fill="#9ca3af"/>
  <rect x="95" y="150" width="50" height="50" fill="#3b82f6" rx="8"/>
  <rect x="105" y="160" width="30" height="30" fill="white" rx="4"/>
  <rect x="110" y="170" width="20" height="10" fill="#3b82f6" rx="2"/>
  
  <!-- Hospital Bed -->
  <rect x="200" y="120" width="120" height="80" fill="#e5e7eb" rx="8"/>
  <rect x="210" y="130" width="100" height="60" fill="white" rx="4"/>
  <circle cx="230" cy="150" r="12" fill="#fbbf24"/>
  <rect x="220" y="160" width="80" height="12" fill="#fbbf24" rx="2"/>
  
  <!-- Oxygen Equipment -->
  <rect x="80" y="80" width="40" height="60" fill="#6b7280" rx="4"/>
  <circle cx="100" cy="90" r="8" fill="#3b82f6"/>
  <path d="M 100 82 L 100 98" stroke="#3b82f6" stroke-width="2"/>
  <path d="M 92 90 L 108 90" stroke="#3b82f6" stroke-width="2"/>
  <rect x="85" y="100" width="30" height="35" fill="#e5e7eb" rx="2"/>
  
  <!-- Monitoring Devices -->
  <rect x="300" y="80" width="80" height="60" fill="white" rx="8"/>
  <rect x="310" y="90" width="60" height="40" fill="#1f2937" rx="4"/>
  <circle cx="340" cy="110" r="8" fill="#10b981"/>
  <rect x="320" y="120" width="40" height="2" fill="#10b981"/>
  <rect x="320" y="125" width="35" height="2" fill="#10b981"/>
  <rect x="320" y="130" width="40" height="2" fill="#10b981"/>
  
  <!-- Medical Supplies -->
  <!-- Bandages -->
  <rect x="50" y="250" width="60" height="30" fill="white" rx="4"/>
  <rect x="55" y="255" width="50" height="20" fill="#ef4444" rx="2"/>
  <rect x="60" y="260" width="40" height="10" fill="white" rx="1"/>
  
  <!-- Syringes -->
  <rect x="130" y="250" width="20" height="30" fill="white" rx="2"/>
  <rect x="135" y="255" width="10" height="20" fill="#3b82f6"/>
  <path d="M 140 250 L 140 245" stroke="#6b7280" stroke-width="2"/>
  
  <!-- Pills -->
  <circle cx="200" cy="265" r="8" fill="#10b981"/>
  <circle cx="220" cy="265" r="8" fill="#10b981"/>
  <circle cx="240" cy="265" r="8" fill="#10b981"/>
  
  <!-- Medical Cross -->
  <rect x="350" y="250" width="25" height="60" fill="#ef4444" rx="4"/>
  <rect x="337" y="272" width="51" height="25" fill="#ef4444" rx="4"/>
  
  <!-- Equipment Storage -->
  <rect x="320" y="200" width="60" height="80" fill="#f59e0b" rx="8"/>
  <rect x="330" y="210" width="40" height="60" fill="#fbbf24" rx="4"/>
  <rect x="335" y="215" width="30" height="8" fill="#f59e0b" rx="2"/>
  <rect x="335" y="230" width="30" height="8" fill="#f59e0b" rx="2"/>
  <rect x="335" y="245" width="30" height="8" fill="#f59e0b" rx="2"/>
  <rect x="335" y="260" width="30" height="8" fill="#f59e0b" rx="2"/>
</svg> 