<svg width="400" height="300" viewBox="0 0 400 300" fill="none" xmlns="http://www.w3.org/2000/svg">
  <defs>
    <linearGradient id="nursing-bg" x1="0%" y1="0%" x2="100%" y2="100%">
      <stop offset="0%" style="stop-color:#fef3c7;stop-opacity:1" />
      <stop offset="100%" style="stop-color:#fde68a;stop-opacity:1" />
    </linearGradient>
  </defs>
  
  <!-- Background -->
  <rect width="400" height="300" fill="url(#nursing-bg)"/>
  
  <!-- Nurse -->
  <circle cx="120" cy="80" r="25" fill="#fbbf24"/>
  <rect x="95" y="105" width="50" height="60" fill="#3b82f6" rx="8"/>
  <rect x="105" y="115" width="30" height="15" fill="white" rx="4"/>
  
  <!-- Patient Bed -->
  <rect x="250" y="120" width="120" height="80" fill="#e5e7eb" rx="8"/>
  <rect x="260" y="130" width="100" height="60" fill="white" rx="4"/>
  <circle cx="280" cy="150" r="15" fill="#fbbf24"/>
  <rect x="270" y="165" width="80" height="15" fill="#fbbf24" rx="4"/>
  
  <!-- Medical Equipment -->
  <rect x="50" y="200" width="60" height="40" fill="#ef4444" rx="4"/>
  <circle cx="80" cy="220" r="8" fill="white"/>
  <rect x="80" y="200" width="2" height="40" fill="white"/>
  
  <!-- IV Stand -->
  <rect x="300" y="80" width="4" height="80" fill="#6b7280"/>
  <rect x="280" y="80" width="48" height="4" fill="#6b7280"/>
  <circle cx="304" cy="80" r="8" fill="#3b82f6"/>
  <path d="M 304 80 L 304 60" stroke="#3b82f6" stroke-width="2"/>
  
  <!-- Medical Charts -->
  <rect x="320" y="200" width="60" height="40" fill="white" rx="4"/>
  <rect x="330" y="210" width="40" height="2" fill="#6b7280"/>
  <rect x="330" y="215" width="35" height="2" fill="#6b7280"/>
  <rect x="330" y="220" width="40" height="2" fill="#6b7280"/>
  <rect x="330" y="225" width="30" height="2" fill="#6b7280"/>
  
  <!-- Stethoscope -->
  <circle cx="180" cy="60" r="20" fill="none" stroke="#059669" stroke-width="4"/>
  <circle cx="180" cy="60" r="12" fill="none" stroke="#059669" stroke-width="3"/>
  <path d="M 180 40 Q 220 40 240 80 Q 260 120 180 120 Q 100 120 120 80 Q 140 40 180 40" 
        fill="none" stroke="#059669" stroke-width="4"/>
  
  <!-- Medical Cross -->
  <rect x="350" y="50" width="30" height="90" fill="#ef4444" rx="4"/>
  <rect x="335" y="75" width="60" height="30" fill="#ef4444" rx="4"/>
</svg> 