<svg width="600" height="400" viewBox="0 0 600 400" fill="none" xmlns="http://www.w3.org/2000/svg">
  <defs>
    <linearGradient id="team-bg" x1="0%" y1="0%" x2="100%" y2="100%">
      <stop offset="0%" style="stop-color:#f3e8ff;stop-opacity:1" />
      <stop offset="100%" style="stop-color:#e9d5ff;stop-opacity:1" />
    </linearGradient>
  </defs>
  
  <!-- Background -->
  <rect width="600" height="400" fill="url(#team-bg)"/>
  
  <!-- Team Members -->
  <!-- Doctor 1 -->
  <circle cx="120" cy="120" r="35" fill="#fbbf24"/>
  <rect x="85" y="155" width="70" height="80" fill="#3b82f6" rx="8"/>
  <rect x="95" y="165" width="50" height="20" fill="white" rx="4"/>
  <rect x="95" y="190" width="50" height="15" fill="white" rx="4"/>
  
  <!-- Nurse 1 -->
  <circle cx="250" cy="100" r="30" fill="#fbbf24"/>
  <rect x="220" y="130" width="60" height="70" fill="#ef4444" rx="8"/>
  <rect x="230" y="140" width="40" height="15" fill="white" rx="4"/>
  
  <!-- Therapist 1 -->
  <circle cx="380" cy="130" r="32" fill="#fbbf24"/>
  <rect x="348" y="162" width="64" height="75" fill="#10b981" rx="8"/>
  <rect x="358" y="172" width="44" height="18" fill="white" rx="4"/>
  
  <!-- Doctor 2 -->
  <circle cx="480" cy="110" r="28" fill="#fbbf24"/>
  <rect x="452" y="138" width="56" height="72" fill="#8b5cf6" rx="8"/>
  <rect x="462" y="148" width="36" height="16" fill="white" rx="4"/>
  
  <!-- Support Staff -->
  <circle cx="200" cy="250" r="25" fill="#fbbf24"/>
  <rect x="175" y="275" width="50" height="60" fill="#f59e0b" rx="8"/>
  <rect x="185" y="285" width="30" height="12" fill="white" rx="4"/>
  
  <!-- Medical Equipment -->
  <!-- Stethoscope -->
  <circle cx="320" cy="80" r="20" fill="none" stroke="#059669" stroke-width="4"/>
  <circle cx="320" cy="80" r="12" fill="none" stroke="#059669" stroke-width="3"/>
  <path d="M 320 60 Q 360 60 380 100 Q 400 140 320 140 Q 240 140 260 100 Q 280 60 320 60" 
        fill="none" stroke="#059669" stroke-width="4"/>
  
  <!-- Medical Charts -->
  <rect x="450" y="250" width="80" height="50" fill="white" rx="4"/>
  <rect x="460" y="260" width="60" height="3" fill="#6b7280"/>
  <rect x="460" y="265" width="55" height="3" fill="#6b7280"/>
  <rect x="460" y="270" width="60" height="3" fill="#6b7280"/>
  <rect x="460" y="275" width="50" height="3" fill="#6b7280"/>
  
  <!-- Medical Cross -->
  <rect x="150" y="350" width="25" height="75" fill="#ef4444" rx="4"/>
  <rect x="137" y="372" width="51" height="25" fill="#ef4444" rx="4"/>
  
  <!-- Heartbeat -->
  <path d="M 500 350 Q 520 330 540 350 T 580 350" stroke="#ef4444" stroke-width="3" fill="none"/>
  <circle cx="500" cy="350" r="4" fill="#ef4444"/>
  <circle cx="540" cy="350" r="4" fill="#ef4444"/>
  <circle cx="580" cy="350" r="4" fill="#ef4444"/>
  
  <!-- Connection Lines -->
  <path d="M 155 190 L 220 160" stroke="#8b5cf6" stroke-width="2" stroke-dasharray="5,5"/>
  <path d="M 280 160 L 348 162" stroke="#8b5cf6" stroke-width="2" stroke-dasharray="5,5"/>
  <path d="M 412 190 L 452 165" stroke="#8b5cf6" stroke-width="2" stroke-dasharray="5,5"/>
  
  <!-- Team Unity Symbol -->
  <circle cx="300" cy="200" r="15" fill="none" stroke="#8b5cf6" stroke-width="3"/>
  <circle cx="300" cy="200" r="8" fill="#8b5cf6"/>
</svg> 